<svg xmlns="http://www.w3.org/2000/svg" fill="none" viewBox="0 0 18 18" role="img" aria-hidden="true" alt="Scopus icon">
  <rect width="16.5" height="16.5" x=".75" y=".75" stroke="#fff" stroke-width="1.5" rx="8.25"></rect>
  <path fill="#fff" d="M7.62 10.26c0-.89-.74-1.32-1.5-1.77l-.15-.09c-.63-.38-1.3-.64-1.3-1.34 0-.52.38-1.09 1.13-1.09.65 0 1.1.1 1.67.44l.05-.79c-.53-.22-.91-.32-1.77-.32-1.23 0-1.98.8-1.98 1.82 0 .93.75 1.38 1.5 1.83l.22.13c.61.37 1.25.62 1.25 1.28 0 .64-.57 1.1-1.25 1.1-.67 0-1.11-.15-1.62-.46l-.12.79c.52.24 1.05.35 1.78.35 1.02 0 2.09-.63 2.09-1.88ZM14.008 11.74l-.06-.76c-.61.33-1.26.46-1.91.46-1.42 0-2.55-1.19-2.55-2.77 0-1.67 1.11-2.7 2.41-2.7.82 0 1.45.13 2.05.46l.06-.75c-.55-.26-1-.38-2.01-.38-1.94 0-3.41 1.51-3.41 3.43 0 2.19 1.75 3.39 3.38 3.39.82 0 1.5-.11 2.04-.38Z"></path>
</svg>